<svg
  width="54"
  height="54"
  viewBox="0 0 100 100"
  preserveAspectRatio="xMidYMid meet"
>
  <g fill="#06b6d4">
    <g>
      <g>
        <g>
          <path
            fill-rule="evenodd"
            clip-rule="evenodd"
            d="M85,5H15C9.477,5,5,9.478,5,15v70c0,5.522,4.477,10,10,10h70 c5.522,0,10-4.478,10-10V15C95,9.478,90.522,5,85,5z M92,84c0,5.657-2.343,8-8,8H16c-5.658,0-8-2.343-8-8V16c0-5.657,2.342-8,8-8 h68c5.657,0,8,2.343,8,8V84z"
          ></path>
        </g>
      </g>
    </g>
    <g>
      <g>
        <g>
          <polygon
            fill-rule="evenodd"
            clip-rule="evenodd"
            points="31,60 28,62 36,69 36,92 39,92 39,67"
          ></polygon>
        </g>
      </g>
    </g>
    <g>
      <g>
        <g>
          <polygon
            fill-rule="evenodd"
            clip-rule="evenodd"
            points="39,54 39,43 36,43 36,56 45,64 45,92 48,92 48,62"
          ></polygon>
        </g>
      </g>
    </g>
    <g>
      <g>
        <g>
          <polygon
            fill-rule="evenodd"
            clip-rule="evenodd"
            points="61,31 61,41 53,48 53,92 56,92 56,50 64,43 64,31"
          ></polygon>
        </g>
      </g>
    </g>
    <g>
      <g>
        <g>
          <polygon
            fill-rule="evenodd"
            clip-rule="evenodd"
            points="70,46 62,53 62,92 65,92 65,55 73,48"
          ></polygon>
        </g>
      </g>
    </g>
    <g>
      <g>
        <g>
          <path
            fill-rule="evenodd"
            clip-rule="evenodd"
            d="M25.5,51c-3.59,0-6.5,2.91-6.5,6.5s2.91,6.5,6.5,6.5s6.5-2.91,6.5-6.5 S29.09,51,25.5,51z M25.5,61c-1.933,0-3.5-1.567-3.5-3.5s1.567-3.5,3.5-3.5s3.5,1.567,3.5,3.5S27.433,61,25.5,61z"
          ></path>
        </g>
      </g>
    </g>
    <g>
      <g>
        <g>
          <path
            fill-rule="evenodd"
            clip-rule="evenodd"
            d="M37.5,31c-3.59,0-6.5,2.91-6.5,6.5s2.91,6.5,6.5,6.5s6.5-2.91,6.5-6.5 S41.09,31,37.5,31z M37.5,41c-1.933,0-3.5-1.567-3.5-3.5s1.567-3.5,3.5-3.5s3.5,1.567,3.5,3.5S39.433,41,37.5,41z"
          ></path>
        </g>
      </g>
    </g>
    <g>
      <g>
        <g>
          <path
            fill-rule="evenodd"
            clip-rule="evenodd"
            d="M62.5,18c-3.59,0-6.5,2.91-6.5,6.5s2.91,6.5,6.5,6.5s6.5-2.91,6.5-6.5 S66.09,18,62.5,18z M62.5,28c-1.933,0-3.5-1.567-3.5-3.5s1.567-3.5,3.5-3.5s3.5,1.567,3.5,3.5S64.433,28,62.5,28z"
          ></path>
        </g>
      </g>
    </g>
    <g>
      <g>
        <g>
          <path
            fill-rule="evenodd"
            clip-rule="evenodd"
            d="M74.5,37c-3.59,0-6.5,2.91-6.5,6.5s2.91,6.5,6.5,6.5s6.5-2.91,6.5-6.5 S78.09,37,74.5,37z M74.5,47c-1.933,0-3.5-1.567-3.5-3.5s1.567-3.5,3.5-3.5s3.5,1.567,3.5,3.5S76.433,47,74.5,47z"
          ></path>
        </g>
      </g>
    </g>
  </g>
</svg>
